<svg width="136" height="25" viewBox="0 0 136 25" fill="none" xmlns="http://www.w3.org/2000/svg">
<path d="M14.986 8.89279L12.4538 3.40288C12.2751 3.01545 11.7244 3.01545 11.5457 3.40288L9.01347 8.89279C8.94064 9.0507 8.791 9.15942 8.61831 9.17989L2.61459 9.89173C2.19089 9.94197 2.02073 10.4657 2.33398 10.7553L6.77269 14.8601C6.90036 14.9782 6.95752 15.1541 6.92363 15.3247L5.74537 21.2545C5.66222 21.673 6.1077 21.9967 6.48001 21.7883L11.7555 18.8353C11.9073 18.7503 12.0922 18.7503 12.244 18.8353L17.5195 21.7883C17.8918 21.9967 18.3373 21.673 18.2541 21.2545L17.0759 15.3247C17.042 15.1541 17.0991 14.9782 17.2268 14.8601L21.6655 10.7553C21.9788 10.4657 21.8086 9.94197 21.3849 9.89173L15.3812 9.17989C15.2085 9.15942 15.0589 9.0507 14.986 8.89279Z" fill="#FCAF3B" stroke="#FCAF3B" stroke-width="2" stroke-linecap="round" stroke-linejoin="round"/>
<path d="M42.986 8.89279L40.4538 3.40288C40.2751 3.01545 39.7244 3.01545 39.5457 3.40288L37.0135 8.89279C36.9406 9.0507 36.791 9.15942 36.6183 9.17989L30.6146 9.89173C30.1909 9.94197 30.0207 10.4657 30.334 10.7553L34.7727 14.8601C34.9004 14.9782 34.9575 15.1541 34.9236 15.3247L33.7454 21.2545C33.6622 21.673 34.1077 21.9967 34.48 21.7883L39.7555 18.8353C39.9073 18.7503 40.0922 18.7503 40.244 18.8353L45.5195 21.7883C45.8918 21.9967 46.3373 21.673 46.2541 21.2545L45.0759 15.3247C45.042 15.1541 45.0991 14.9782 45.2268 14.8601L49.6655 10.7553C49.9788 10.4657 49.8086 9.94197 49.3849 9.89173L43.3812 9.17989C43.2085 9.15942 43.0589 9.0507 42.986 8.89279Z" fill="#FCAF3B" stroke="#FCAF3B" stroke-width="2" stroke-linecap="round" stroke-linejoin="round"/>
<path d="M70.986 8.89279L68.4538 3.40288C68.2751 3.01545 67.7244 3.01545 67.5457 3.40288L65.0135 8.89279C64.9406 9.0507 64.791 9.15942 64.6183 9.17989L58.6146 9.89173C58.1909 9.94197 58.0207 10.4657 58.334 10.7553L62.7727 14.8601C62.9004 14.9782 62.9575 15.1541 62.9236 15.3247L61.7454 21.2545C61.6622 21.673 62.1077 21.9967 62.48 21.7883L67.7555 18.8353C67.9073 18.7503 68.0922 18.7503 68.244 18.8353L73.5195 21.7883C73.8918 21.9967 74.3373 21.673 74.2541 21.2545L73.0759 15.3247C73.042 15.1541 73.0991 14.9782 73.2268 14.8601L77.6655 10.7553C77.9788 10.4657 77.8086 9.94197 77.3849 9.89173L71.3812 9.17989C71.2085 9.15942 71.0589 9.0507 70.986 8.89279Z" fill="#FCAF3B" stroke="#FCAF3B" stroke-width="2" stroke-linecap="round" stroke-linejoin="round"/>
<path d="M98.986 8.89279L96.4538 3.40288C96.2751 3.01545 95.7244 3.01545 95.5457 3.40288L93.0135 8.89279C92.9406 9.0507 92.791 9.15942 92.6183 9.17989L86.6146 9.89173C86.1909 9.94197 86.0207 10.4657 86.334 10.7553L90.7727 14.8601C90.9004 14.9782 90.9575 15.1541 90.9236 15.3247L89.7454 21.2545C89.6622 21.673 90.1077 21.9967 90.48 21.7883L95.7555 18.8353C95.9073 18.7503 96.0922 18.7503 96.244 18.8353L101.519 21.7883C101.892 21.9967 102.337 21.673 102.254 21.2545L101.076 15.3247C101.042 15.1541 101.099 14.9782 101.227 14.8601L105.666 10.7553C105.979 10.4657 105.809 9.94197 105.385 9.89173L99.3812 9.17989C99.2085 9.15942 99.0589 9.0507 98.986 8.89279Z" fill="#FCAF3B" stroke="#FCAF3B" stroke-width="2" stroke-linecap="round" stroke-linejoin="round"/>
<path d="M126.986 8.89279L124.454 3.40288C124.275 3.01545 123.724 3.01545 123.546 3.40288L121.013 8.89279C120.941 9.0507 120.791 9.15942 120.618 9.17989L114.615 9.89173C114.191 9.94197 114.021 10.4657 114.334 10.7553L118.773 14.8601C118.9 14.9782 118.958 15.1541 118.924 15.3247L117.745 21.2545C117.662 21.673 118.108 21.9967 118.48 21.7883L123.756 18.8353C123.907 18.7503 124.092 18.7503 124.244 18.8353L129.519 21.7883C129.892 21.9967 130.337 21.673 130.254 21.2545L129.076 15.3247C129.042 15.1541 129.099 14.9782 129.227 14.8601L133.666 10.7553C133.979 10.4657 133.809 9.94197 133.385 9.89173L127.381 9.17989C127.209 9.15942 127.059 9.0507 126.986 8.89279Z" fill="#FCAF3B" stroke="#FCAF3B" stroke-width="2" stroke-linecap="round" stroke-linejoin="round"/>
</svg>
