<?xml version="1.0" encoding="utf-8"?>
<!-- Generator: Adobe Illustrator 25.4.1, SVG Export Plug-In . SVG Version: 6.00 Build 0)  -->
<svg version="1.1" id="Layer_1" xmlns="http://www.w3.org/2000/svg" xmlns:xlink="http://www.w3.org/1999/xlink" x="0px" y="0px"
	 viewBox="0 0 512 512" style="enable-background:new 0 0 512 512;" xml:space="preserve">
<style type="text/css">
	.st0{fill:#FFFFFF;}
	.st1{fill:#FFA400;}
</style>
<path class="st0" d="M405.4,21.3H106.7C47.9,21.3,0,69.2,0,128v170.7c0,58.8,47.9,106.6,106.6,106.6h128V448h-85.3
	c-11.7,0-21.3,9.5-21.3,21.3s9.5,21.3,21.3,21.3h213.3c11.7,0,21.3-9.5,21.3-21.3s-9.5-21.3-21.3-21.3h-85.3v-42.6h128
	c58.8,0,106.7-47.9,106.7-106.7V128C512,69.2,464.1,21.3,405.4,21.3z M469.4,298.7c0,35.3-28.7,64-64,64H106.7
	c-35.3,0-64-28.7-64-64V128c0-35.3,28.7-64,64-64h298.6c35.3,0,64,28.7,64,64h0.1V298.7z"/>
<path class="st1" d="M155.6,228.3l55.1,55.1c8.3,8.4,8.3,21.9,0,30.2c-4.2,4.2-9.6,6.3-15.1,6.3s-10.9-2.1-15.1-6.3l-55.1-55.1
	c-25-25-25-65.5,0-90.5l55.1-55.1c8.4-8.3,21.9-8.3,30.2,0c8.3,8.4,8.3,21.9,0,30.2l-55.1,55C147.3,206.5,147.3,220,155.6,228.3z"/>
<path class="st1" d="M386.6,258.6l-55.1,55.1c-4.2,4.2-9.6,6.3-15.1,6.3s-10.9-2.1-15.1-6.3c-8.3-8.3-8.3-21.8,0-30.2l55.1-55.1
	c8.3-8.3,8.3-21.8,0-30.2l-55.1-55.1c-8.3-8.3-8.3-21.8,0-30.2c8.3-8.3,21.8-8.3,30.2,0l55.1,55.2
	C411.6,193.1,411.6,233.6,386.6,258.6z"/>
</svg>
