<?xml version="1.0" encoding="utf-8"?>
<!-- Generator: Adobe Illustrator 25.4.1, SVG Export Plug-In . SVG Version: 6.00 Build 0)  -->
<svg version="1.1" id="Layer_1" xmlns="http://www.w3.org/2000/svg" xmlns:xlink="http://www.w3.org/1999/xlink" x="0px" y="0px"
	 viewBox="0 0 512 512" style="enable-background:new 0 0 512 512;" xml:space="preserve">
<style type="text/css">
	.st0{fill:#FFFFFF;}
	.st1{fill:#FFA400;}
</style>
<path class="st0" d="M300.4,119.2L19.2,400.4c-24.6,26.4-23.2,67.8,3.2,92.4c25.1,23.4,64,23.4,89.2,0l281.3-281.2L300.4,119.2z
	 M81.4,462.7c-9,8.5-23,8.5-32,0c-8.8-8.8-8.8-23.2,0-32l165.7-165.8l32.1,32.1L81.4,462.7z M245.3,234.7l55.2-55.2l32,32.1
	l-55.2,55.2L245.3,234.7z"/>
<polygon class="st1" points="455.1,312.1 512,340.5 455.1,369.1 426.7,425.9 398.2,369.1 341.3,340.5 398.2,312.1 426.7,255.2 "/>
<polygon class="st1" points="142.2,113.8 85.3,85.3 142.2,56.9 170.7,0 199.1,56.9 256,85.3 199.1,113.8 170.7,170.7 "/>
<polygon class="st1" points="412.4,99.6 362.7,74.7 412.4,49.8 437.3,0 462.2,49.8 512,74.7 462.2,99.6 437.3,149.3 "/>
</svg>
