<?xml version="1.0" encoding="utf-8"?>
<!-- Generator: Adobe Illustrator 25.4.1, SVG Export Plug-In . SVG Version: 6.00 Build 0)  -->
<svg version="1.1" id="Capa_1" xmlns="http://www.w3.org/2000/svg" xmlns:xlink="http://www.w3.org/1999/xlink" x="0px" y="0px"
	 viewBox="0 0 42 42" style="enable-background:new 0 0 42 42;" xml:space="preserve">
<style type="text/css">
	.st0{fill:none;stroke:#FFFFFF;stroke-width:1.5;stroke-miterlimit:10;}
	.st1{fill-rule:evenodd;clip-rule:evenodd;fill:#FFFFFF;}
</style>
<path class="st0" d="M21.6,40.6L21.6,40.6c-10.5,0-19-8.5-19-19l0,0c0-10.5,8.5-19,19-19l0,0c10.5,0,19,8.5,19,19l0,0
	C40.6,32.1,32.1,40.6,21.6,40.6z"/>
<path class="st1" d="M32,21c-0.1-5.7-4.8-10.2-10.5-10c-5.4,0.1-9.8,4.4-10,9.9c0,0.1,0,0.3,0,0.4c0,1.9,0.5,3.7,1.5,5.3L11.1,32
	l5.7-1.8c5,2.7,11.2,0.9,13.9-4.1c0.8-1.5,1.2-3.1,1.3-4.8V21z M21.8,29.9c-1.7,0-3.3-0.5-4.8-1.4l-3.3,1l1.1-3.2
	c-1.1-1.4-1.6-3.2-1.6-5c0-0.3,0-0.6,0-0.8c0.5-4.7,4.7-8.2,9.5-7.7c4.1,0.4,7.3,3.7,7.7,7.8c0,0.2,0,0.4,0,0.7
	C30.3,26,26.5,29.8,21.8,29.9z"/>
<path class="st1" d="M26.5,23.4c-0.2-0.1-1.5-0.7-1.7-0.8s-0.4-0.1-0.6,0.1s-0.7,0.8-0.8,1s-0.3,0.2-0.5,0.1c-0.7-0.3-1.4-0.7-2-1.2
	c-0.5-0.5-1-1.1-1.4-1.7c-0.1-0.2-0.1-0.4,0.1-0.5c0,0,0,0,0,0l0.4-0.4l0.1-0.1l0.2-0.3c0.1-0.1,0.1-0.3,0-0.4
	c-0.1-0.1-0.6-1.4-0.8-1.9s-0.4-0.4-0.6-0.4h-0.5c-0.3,0-0.5,0.1-0.7,0.3c-0.6,0.5-0.9,1.3-0.9,2.1c0,0.3,0.1,0.6,0.1,0.9
	c0.2,0.6,0.5,1.2,0.9,1.7c1,1.6,2.5,2.9,4.3,3.8c2.6,1,2.6,0.7,3,0.6c0.7-0.1,1.3-0.6,1.7-1.2c0.2-0.4,0.2-0.8,0.1-1.2
	C26.9,23.5,26.7,23.5,26.5,23.4z"/>
</svg>
