<?xml version="1.0" encoding="utf-8"?>
<!-- Generator: Adobe Illustrator 25.4.1, SVG Export Plug-In . SVG Version: 6.00 Build 0)  -->
<svg version="1.1" id="Capa_1" xmlns="http://www.w3.org/2000/svg" xmlns:xlink="http://www.w3.org/1999/xlink" x="0px" y="0px"
	 viewBox="0 0 45 45" style="enable-background:new 0 0 45 45;" xml:space="preserve">
<style type="text/css">
	.st0{fill:#7E22CE;}
	.st1{fill:#FFFFFF;}
</style>
<path class="st0" d="M22.5,44L22.5,44C10.6,44,1,34.4,1,22.5l0,0C1,10.6,10.6,1,22.5,1l0,0C34.4,1,44,10.6,44,22.5l0,0
	C44,34.4,34.4,44,22.5,44z"/>
<path class="st1" d="M22.5,12.8c3.2,0,3.5,0,4.8,0.1c0.8,0,1.5,0.1,2.1,0.5c1,0.5,1.8,1.2,2.3,2.3c0.2,0.7,0.5,1.5,0.5,2.1
	c0,1.2,0.1,1.6,0.1,4.8s0,3.5-0.1,4.8c0,0.8-0.1,1.5-0.5,2.1c-0.5,1-1.2,1.8-2.3,2.3c-0.7,0.2-1.5,0.5-2.1,0.5
	c-1.2,0-1.6,0.1-4.8,0.1s-3.5,0-4.8-0.1c-0.8,0-1.5-0.1-2.1-0.5c-1-0.5-1.8-1.2-2.3-2.3c-0.2-0.7-0.5-1.5-0.5-2.1
	c0-1.2-0.1-1.6-0.1-4.8s0-3.5,0.1-4.8c0-0.8,0.1-1.5,0.5-2.1c0.5-1,1.2-1.8,2.3-2.3c0.7-0.2,1.5-0.5,2.1-0.5
	C19,12.9,19.3,12.8,22.5,12.8 M22.5,10.7c-3.2,0-3.6,0-4.9,0.1c-1,0-1.9,0.2-2.8,0.6c-1.6,0.6-2.8,1.9-3.5,3.5
	c-0.3,0.9-0.6,1.9-0.6,2.8c-0.1,1.2-0.1,1.7-0.1,4.9s0,3.6,0.1,4.9c0,1,0.2,1.9,0.6,2.8c0.7,1.6,1.9,2.8,3.5,3.4
	c0.9,0.3,1.9,0.6,2.8,0.6c1.2,0,1.7,0.1,4.9,0.1s3.6,0,4.9-0.1c1,0,1.9-0.2,2.8-0.6c1.6-0.6,2.8-1.9,3.5-3.4
	c0.3-0.9,0.6-1.9,0.6-2.8c0-1.2,0.1-1.7,0.1-4.9s0-3.6-0.1-4.9c0-1-0.2-1.9-0.6-2.8c-0.6-1.6-1.9-2.8-3.5-3.5
	c-0.9-0.3-1.9-0.6-2.8-0.6C26.1,10.7,25.7,10.7,22.5,10.7"/>
<path class="st1" d="M22.5,16.4c-3.4,0-6.1,2.7-6.1,6.1s2.7,6.1,6.1,6.1s6.1-2.7,6.1-6.1S25.9,16.4,22.5,16.4L22.5,16.4 M22.5,26.5
	c-2.1,0-4-1.8-4-4s1.8-4,4-4s4,1.8,4,4l0,0C26.5,24.6,24.6,26.5,22.5,26.5"/>
<path class="st1" d="M30.2,16.2c0,0.8-0.7,1.4-1.4,1.4c-0.7,0-1.4-0.7-1.4-1.4c0-0.8,0.7-1.4,1.4-1.4C29.5,14.8,30.2,15.4,30.2,16.2
	"/>
</svg>
