<?xml version="1.0" encoding="utf-8"?>
<!-- Generator: Adobe Illustrator 25.4.1, SVG Export Plug-In . SVG Version: 6.00 Build 0)  -->
<svg version="1.1" id="Layer_1" xmlns="http://www.w3.org/2000/svg" xmlns:xlink="http://www.w3.org/1999/xlink" x="0px"
	y="0px" viewBox="0 0 512 512" style="enable-background:new 0 0 512 512;" xml:space="preserve">
	<style type="text/css">
		.st0 {
			fill: #5C0F8B;
		}
	</style>
	<path class="st0" d="M386.6,168.1c25,25,25,65.5,0,90.5l-55.1,55.1c-4.2,4.2-9.6,6.3-15.1,6.3s-10.9-2.1-15.1-6.3
	c-8.3-8.3-8.3-21.8,0-30.2l55.1-55.1c8.3-8.3,8.3-21.8,0-30.2l-55.1-55.1c-8.3-8.3-8.3-21.8,0-30.2c8.3-8.3,21.8-8.3,30.2,0
	L386.6,168.1L386.6,168.1z M210.7,143.1c8.3-8.3,8.3-21.8,0-30.2c-8.3-8.3-21.8-8.3-30.2,0l-55.1,55.1c-25,25-25,65.5,0,90.5
	l55.1,55.1c4.2,4.2,9.6,6.3,15.1,6.3s10.9-2.1,15.1-6.3c8.3-8.3,8.3-21.8,0-30.2l-55.1-55.1c-8.3-8.3-8.3-21.8,0-30.2L210.7,143.1
	L210.7,143.1z M512,128v170.7c0,58.8-47.9,106.7-106.7,106.7h-128V448h85.3c11.8,0,21.3,9.5,21.3,21.3s-9.6,21.3-21.3,21.3H149.3
	c-11.8,0-21.3-9.5-21.3-21.3s9.6-21.3,21.3-21.3h85.3v-42.7h-128C47.9,405.3,0,357.5,0,298.7V128C0,69.2,47.9,21.3,106.7,21.3h298.7
	C464.1,21.3,512,69.2,512,128z M469.3,128c0-35.3-28.7-64-64-64H106.7c-35.3,0-64,28.7-64,64v170.7c0,35.3,28.7,64,64,64h298.7
	c35.3,0,64-28.7,64-64V128z" />
</svg>