<?xml version="1.0" encoding="utf-8"?>
<!-- Generator: Adobe Illustrator 25.4.1, SVG Export Plug-In . SVG Version: 6.00 Build 0)  -->
<svg version="1.1" id="Capa_1" xmlns="http://www.w3.org/2000/svg" xmlns:xlink="http://www.w3.org/1999/xlink" x="0px" y="0px"
	 viewBox="0 0 45 45" style="enable-background:new 0 0 45 45;" xml:space="preserve">
<style type="text/css">
	.st0{fill:#7E22CE;}
	.st1{fill-rule:evenodd;clip-rule:evenodd;fill:#FFFFFF;}
</style>
<path class="st0" d="M22.5,44L22.5,44C10.6,44,1,34.4,1,22.5l0,0C1,10.6,10.6,1,22.5,1l0,0C34.4,1,44,10.6,44,22.5l0,0
	C44,34.4,34.4,44,22.5,44z"/>
<path class="st1" d="M34.3,21.8c-0.1-6.4-5.4-11.5-11.9-11.3c-6.1,0.1-11.1,5-11.3,11.2c0,0.1,0,0.3,0,0.5c0,2.1,0.6,4.2,1.7,6
	l-2.1,6.1l6.4-2c5.7,3.1,12.7,1,15.7-4.6c0.9-1.7,1.4-3.5,1.5-5.4C34.3,22.2,34.3,21.8,34.3,21.8z M22.7,31.9
	c-1.9,0-3.7-0.6-5.4-1.6l-3.7,1.1l1.2-3.6c-1.2-1.6-1.8-3.6-1.8-5.7c0-0.3,0-0.7,0-0.9c0.6-5.3,5.3-9.3,10.8-8.7
	c4.6,0.5,8.3,4.2,8.7,8.8c0,0.2,0,0.5,0,0.8C32.3,27.5,28,31.8,22.7,31.9z"/>
<path class="st1" d="M28,24.5c-0.2-0.1-1.7-0.8-1.9-0.9c-0.2-0.1-0.5-0.1-0.7,0.1s-0.8,0.9-0.9,1.1S24.2,25.1,24,25
	c-0.8-0.3-1.6-0.8-2.3-1.4c-0.6-0.6-1.1-1.2-1.6-1.9c-0.1-0.2-0.1-0.5,0.1-0.6l0,0l0.5-0.5l0.1-0.1l0.2-0.3c0.1-0.1,0.1-0.3,0-0.5
	c-0.1-0.1-0.7-1.6-0.9-2.1c-0.2-0.6-0.5-0.5-0.7-0.5h-0.6c-0.3,0-0.6,0.1-0.8,0.3c-0.7,0.6-1,1.5-1,2.4c0,0.3,0.1,0.7,0.1,1
	c0.2,0.7,0.6,1.4,1,1.9c1.1,1.8,2.8,3.3,4.9,4.3c2.9,1.1,2.9,0.8,3.4,0.7c0.8-0.1,1.5-0.7,1.9-1.4c0.2-0.5,0.2-0.9,0.1-1.4
	C28.5,24.7,28.3,24.7,28,24.5z"/>
</svg>
