<svg width="120" height="31" viewBox="0 0 120 31" fill="none" xmlns="http://www.w3.org/2000/svg">
<path d="M37.7146 30.6026L39.2714 27.2112H39.5191L41.0758 30.6055H40.8105L39.3447 27.3728H39.4502L37.9843 30.6055L37.7146 30.6026ZM38.2848 29.6475L38.3669 29.4388H40.3942L40.4763 29.6475H38.2848Z" fill="white"/>
<path d="M43.1852 30.6275C42.9436 30.6302 42.7037 30.5863 42.4786 30.4982C42.2692 30.4166 42.0779 30.2943 41.9157 30.1382C41.7566 29.983 41.6304 29.797 41.5449 29.5916C41.371 29.1507 41.371 28.66 41.5449 28.2192C41.6304 28.0134 41.7577 27.8278 41.9187 27.674C42.0812 27.5182 42.2724 27.3954 42.4816 27.3125C42.7073 27.2253 42.9476 27.1819 43.1896 27.1847C43.4224 27.1822 43.6537 27.2215 43.8727 27.3008C44.0761 27.3747 44.2598 27.4949 44.4092 27.652L44.2538 27.8165C44.1174 27.6779 43.9516 27.5719 43.7686 27.5065C43.5841 27.4435 43.3903 27.4122 43.1954 27.4139C42.9869 27.4115 42.7799 27.4494 42.5856 27.5256C42.4043 27.5958 42.239 27.702 42.0997 27.8378C41.9604 27.9737 41.85 28.1364 41.775 28.3161C41.6245 28.696 41.6245 29.1192 41.775 29.499C41.8493 29.6775 41.959 29.839 42.0975 29.9737C42.2372 30.111 42.4033 30.2185 42.5856 30.2896C42.7801 30.365 42.987 30.4029 43.1954 30.4013C43.3888 30.4022 43.581 30.3709 43.7642 30.3087C43.9479 30.2442 44.1151 30.1399 44.2538 30.003L44.4004 30.1926C44.2451 30.3403 44.0595 30.4522 43.8565 30.5203C43.6402 30.5932 43.4133 30.6295 43.1852 30.6275ZM44.157 30.1661V28.9201H44.3945V30.1911L44.157 30.1661Z" fill="white"/>
<path d="M45.8222 30.3807H47.9111V30.6026H45.5745V27.2112H47.8392V27.4345H45.8222V30.3807ZM45.7929 28.7644H47.6252V28.9818H45.787L45.7929 28.7644Z" fill="white"/>
<path d="M48.9078 30.6026V27.2112H49.116L51.5302 30.297H51.4188V27.2112H51.6651V30.6055H51.4613L49.0427 27.5198H49.1585V30.6055L48.9078 30.6026Z" fill="white"/>
<path d="M54.374 30.6275C54.1347 30.6302 53.8973 30.5863 53.6748 30.4982C53.4666 30.4165 53.2768 30.2942 53.1163 30.1382C52.9584 29.9825 52.8333 29.7966 52.7483 29.5916C52.5744 29.1507 52.5744 28.66 52.7483 28.2191C52.8339 28.0142 52.9601 27.8287 53.1192 27.674C53.2801 27.5182 53.4698 27.3954 53.6777 27.3125C53.8994 27.2255 54.1358 27.1821 54.374 27.1847C54.6024 27.1828 54.8293 27.2221 55.0439 27.3008C55.2471 27.3743 55.4303 27.4946 55.5789 27.652L55.4235 27.8121C55.2876 27.6753 55.1235 27.57 54.9427 27.5035C54.7634 27.44 54.5744 27.4082 54.3842 27.4095C54.1781 27.4072 53.9735 27.4452 53.7818 27.5212C53.6008 27.5918 53.4362 27.6988 53.298 27.8356C53.1613 27.9717 53.0528 28.1335 52.9785 28.3117C52.8261 28.6912 52.8261 29.1151 52.9785 29.4946C53.0529 29.6735 53.1623 29.8356 53.3003 29.9714C53.4382 30.1072 53.602 30.2139 53.7818 30.2851C53.9736 30.3606 54.1781 30.3985 54.3842 30.3968C54.5745 30.3976 54.7635 30.3653 54.9427 30.3013C55.1246 30.2349 55.289 30.1278 55.4235 29.9883L55.5789 30.15C55.4304 30.3088 55.2473 30.431 55.0439 30.507C54.8298 30.588 54.6027 30.6288 54.374 30.6275Z" fill="white"/>
<path d="M56.5024 30.6026V27.2112H56.7486V30.6055L56.5024 30.6026Z" fill="white"/>
<path d="M57.4596 30.6026L59.0178 27.2112H59.264L60.8222 30.6055H60.5554L59.0896 27.3728H59.1966L57.7308 30.6055L57.4596 30.6026ZM58.0313 29.6475L58.1133 29.4388H60.1406L60.2227 29.6475H58.0313Z" fill="white"/>
<path d="M62.8729 30.6026V27.2111H64.2127C64.5402 27.2041 64.8642 27.2794 65.1553 27.4301C65.4179 27.567 65.6369 27.7753 65.787 28.0311C65.9351 28.2999 66.0128 28.602 66.0128 28.9091C66.0128 29.2161 65.9351 29.5182 65.787 29.787C65.6365 30.0425 65.4176 30.2507 65.1553 30.388C64.8641 30.5382 64.5401 30.613 64.2127 30.6055L62.8729 30.6026ZM63.1192 30.3807H64.1937C64.4821 30.3879 64.7678 30.3228 65.0248 30.1911C65.2526 30.0726 65.4422 29.8917 65.5716 29.6695C65.6986 29.4352 65.7651 29.1728 65.7651 28.9061C65.7651 28.6395 65.6986 28.377 65.5716 28.1428C65.4422 27.9205 65.2526 27.7396 65.0248 27.6211C64.7678 27.4895 64.4821 27.4243 64.1937 27.4316H63.1192V30.3807Z" fill="white"/>
<path d="M66.9656 30.6026V27.2112H67.2118V30.6055L66.9656 30.6026Z" fill="white"/>
<path d="M69.9354 30.6275C69.6938 30.6303 69.4539 30.5864 69.2288 30.4982C69.0194 30.4166 68.8281 30.2943 68.666 30.1382C68.5068 29.983 68.3806 29.797 68.2951 29.5916C68.1212 29.1507 68.1212 28.66 68.2951 28.2192C68.3807 28.0138 68.5074 27.8283 68.6674 27.674C68.8303 27.5178 69.022 27.395 69.2318 27.3125C69.4575 27.2253 69.6978 27.1819 69.9398 27.1847C70.1721 27.1823 70.4029 27.2216 70.6214 27.3008C70.8252 27.3743 71.0093 27.494 71.1594 27.6505L70.9996 27.8151C70.8627 27.6764 70.6963 27.5704 70.5129 27.505C70.3285 27.4418 70.1347 27.4104 69.9398 27.4125C69.7317 27.4102 69.5252 27.4481 69.3315 27.5241C69.1498 27.5937 68.9842 27.6997 68.8448 27.8356C68.7054 27.9715 68.5952 28.1346 68.5208 28.3147C68.3685 28.6942 68.3685 29.1181 68.5208 29.4976C68.5951 29.6757 68.7043 29.8371 68.8419 29.9722C68.9823 30.1093 69.1488 30.2167 69.3315 30.2881C69.5254 30.3634 69.7318 30.4013 69.9398 30.3998C70.1332 30.401 70.3254 30.3697 70.5085 30.3072C70.6925 30.2431 70.8601 30.1393 70.9996 30.003L71.1462 30.1926C70.9907 30.34 70.8051 30.4518 70.6023 30.5203C70.3874 30.5925 70.1621 30.6288 69.9354 30.6275ZM70.9072 30.1661V28.9201H71.1462V30.1911L70.9072 30.1661Z" fill="white"/>
<path d="M72.3188 30.6026V27.2112H72.5651V30.6055L72.3188 30.6026Z" fill="white"/>
<path d="M74.4971 30.6026V27.4316H73.2775V27.2112H75.9629V27.4345H74.7433V30.6055L74.4971 30.6026Z" fill="white"/>
<path d="M75.9336 30.6026L77.4918 27.2112H77.7425L79.2992 30.6055H79.0339L77.568 27.3728H77.6736L76.2077 30.6055L75.9336 30.6026ZM76.5038 29.6475L76.5859 29.4388H78.6132L78.6953 29.6475H76.5038Z" fill="white"/>
<path d="M80.0057 30.6026V27.2112H80.2535V30.3837H82.203V30.6055L80.0057 30.6026Z" fill="white"/>
<path d="M118.694 4.32217H111.996C111.783 4.32217 111.577 4.23702 111.426 4.08546C111.275 3.9339 111.19 3.72833 111.19 3.51399C111.19 3.29965 111.275 3.09408 111.426 2.94252C111.577 2.79096 111.783 2.70581 111.996 2.70581H118.694C118.908 2.70581 119.113 2.79096 119.264 2.94252C119.415 3.09408 119.5 3.29965 119.5 3.51399C119.5 3.72833 119.415 3.9339 119.264 4.08546C119.113 4.23702 118.908 4.32217 118.694 4.32217Z" fill="white"/>
<path d="M118.694 11.0374C118.48 11.0374 118.275 10.9523 118.124 10.8007C117.973 10.6491 117.888 10.4436 117.888 10.2292V3.51399C117.888 3.29965 117.973 3.09408 118.124 2.94252C118.275 2.79096 118.48 2.70581 118.694 2.70581C118.908 2.70581 119.113 2.79096 119.264 2.94252C119.415 3.09408 119.5 3.29965 119.5 3.51399V10.2292C119.5 10.4436 119.415 10.6491 119.264 10.8007C119.113 10.9523 118.908 11.0374 118.694 11.0374Z" fill="white"/>
<path d="M111.592 5.95459H116.259V22.127H111.592V20.3299C111.142 21.0068 110.449 21.5265 109.513 21.889C108.713 22.222 107.859 22.4057 106.993 22.4312C104.874 22.4312 103.002 21.6685 101.379 20.1433C99.756 18.618 98.9445 16.6348 98.9445 14.1936C98.9445 11.7534 99.756 9.77018 101.379 8.24394C103.002 6.71771 104.874 5.95459 106.993 5.95459H111.592ZM105.015 11.4987C104.637 11.8381 104.335 12.2536 104.128 12.7179C103.921 13.1823 103.814 13.6851 103.814 14.1936C103.814 14.7021 103.921 15.205 104.128 15.6693C104.335 16.1337 104.637 16.5491 105.015 16.8885C105.765 17.5815 106.75 17.9633 107.77 17.9568C108.759 17.9685 109.715 17.6005 110.443 16.9282C111.209 16.2425 111.592 15.3329 111.592 14.1995C111.592 13.0661 111.209 12.1565 110.443 11.4708C109.715 10.7992 108.759 10.4313 107.77 10.4422C106.752 10.4325 105.767 10.81 105.015 11.4987Z" fill="white"/>
<path d="M93.77 6.27792H97.0916V10.0073H93.77V22.1094H89.1028V10.0073V6.27792V0.209229H93.77V6.27792Z" fill="white"/>
<path d="M74.3153 20.1096C72.6237 18.549 71.7779 16.5599 71.7779 14.1422C71.7779 11.7246 72.6237 9.7526 74.3153 8.22637C76.005 6.70111 78.0229 5.93848 80.3693 5.93848C81.7212 5.92827 83.0573 6.22993 84.2743 6.82013C85.4519 7.38356 86.4695 8.23441 87.2338 9.29464L83.4124 12.041C82.7351 10.9791 81.7208 10.4476 80.3693 10.4467C79.36 10.4348 78.3828 10.8017 77.6296 11.4753C77.246 11.8016 76.9404 12.2102 76.7354 12.6708C76.5304 13.1313 76.4313 13.6322 76.4452 14.1364C76.4307 14.6505 76.5293 15.1615 76.734 15.6331C76.9387 16.1047 77.2445 16.5253 77.6296 16.8651C78.3726 17.5598 79.3533 17.9421 80.3693 17.9333C81.7208 17.9333 82.7351 17.4024 83.4124 16.3405L87.2338 19.053C86.4847 20.1223 85.4756 20.9822 84.3021 21.551C83.0772 22.1548 81.7283 22.4628 80.3634 22.4503C78.022 22.4494 76.0059 21.6691 74.3153 20.1096Z" fill="white"/>
<path d="M65.9307 15.2898L69.9618 16.2214C69.3979 18.7488 67.5514 20.6253 64.4223 21.8508C62.2607 22.6991 60.1597 22.6923 58.1192 21.8302C56.0787 20.9681 54.6129 19.4008 53.7217 17.1281C52.8343 14.8554 52.8563 12.7237 53.7876 10.7332C54.7189 8.74258 56.2654 7.32214 58.427 6.47184C60.5681 5.63133 62.6394 5.65044 64.6407 6.52915C66.6421 7.40786 68.0899 8.99434 68.984 11.2886C69.1404 11.6883 69.2958 12.1487 69.4502 12.6698L58.6777 16.8959C58.8715 17.2618 59.1509 17.5751 59.492 17.809C59.8331 18.0429 60.2256 18.1904 60.6361 18.2389C61.5211 18.3786 62.4274 18.277 63.2599 17.9451C64.6877 17.3808 65.5779 16.4957 65.9307 15.2898ZM57.6692 14.1231L64.031 11.6251C63.6059 10.8414 62.9995 10.3575 62.2118 10.1733C61.465 9.982 60.6772 10.0298 59.9588 10.31C59.2314 10.6005 58.6054 11.0993 58.1588 11.7441C57.6721 12.423 57.5089 13.216 57.6692 14.1231Z" fill="white"/>
<path d="M40.8164 13.7352V22.1109H36.1125V6.27791H40.8134V8.58343C41.2563 7.77936 41.9169 7.11716 42.719 6.67319C43.5231 6.19614 44.4394 5.94253 45.3737 5.93848C47.2001 5.93848 48.6205 6.50322 49.6349 7.63271C50.6493 8.76221 51.1564 10.4349 51.1564 12.6508V22.1094H46.4643V13.6676C46.4643 12.6508 46.2165 11.871 45.7211 11.3283C45.2256 10.7856 44.5601 10.5147 43.7246 10.5157C41.7858 10.5157 40.8164 11.5889 40.8164 13.7352Z" fill="white"/>
<path d="M31.7267 8.05745C30.147 6.47785 28.0152 5.57791 25.7841 5.54882C23.5531 5.51974 21.3987 6.3638 19.7786 7.90169L19.0779 8.60113L17.3819 10.313L12.357 15.3487L11.3309 16.3773C10.8494 16.8599 10.2259 17.1743 9.55237 17.2743C8.87887 17.3742 8.19117 17.2542 7.59093 16.9321C6.99069 16.61 6.50976 16.1028 6.21923 15.4856C5.9287 14.8684 5.84399 14.1738 5.97762 13.5046C6.04828 13.1342 6.18749 12.7803 6.38806 12.4613C6.74087 11.8897 7.26535 11.445 7.88613 11.191C8.50692 10.937 9.19204 10.8869 9.84306 11.0477L13.1998 6.63946C9.99404 4.91142 5.92192 5.28613 3.17493 7.91932C2.3503 8.70187 1.68925 9.64108 1.23029 10.6822C0.771328 11.7234 0.523624 12.8457 0.501609 13.9838C0.479594 15.1219 0.683708 16.253 1.10206 17.3112C1.52041 18.3694 2.14464 19.3336 2.93838 20.1476C3.73213 20.9616 4.67951 21.6091 5.72536 22.0525C6.77121 22.4959 7.89461 22.7262 9.03013 22.73C10.1656 22.7339 11.2906 22.5112 12.3394 22.0749C13.3882 21.6387 14.3399 20.9976 15.1392 20.189L15.6419 19.6849L21.1916 14.1232L22.8876 12.4187L23.4314 11.875C23.7288 11.5736 24.0833 11.3349 24.474 11.1729C24.8648 11.0109 25.2839 10.9289 25.7068 10.9318C26.1296 10.9346 26.5477 11.0222 26.9362 11.1893C27.3248 11.3565 27.6761 11.5999 27.9694 11.9053C28.2628 12.2106 28.4922 12.5716 28.6443 12.9672C28.7963 13.3627 28.8679 13.7847 28.8548 14.2084C28.8417 14.6321 28.7442 15.0489 28.568 15.4342C28.3919 15.8196 28.1406 16.1657 27.829 16.4522C26.5683 17.6278 24.5865 17.5278 23.3699 16.3053L22.379 15.312L18.5678 19.1324L19.6188 20.1875C21.2255 21.7938 23.4021 22.6959 25.6713 22.6959C27.9405 22.6959 30.117 21.7938 31.7237 20.1875C33.3259 18.5778 34.226 16.397 34.2266 14.1231C34.2271 11.8492 33.3281 9.66787 31.7267 8.05745Z" fill="white"/>
</svg>
