<?xml version="1.0" encoding="utf-8"?>
<!-- Generator: Adobe Illustrator 25.4.1, SVG Export Plug-In . SVG Version: 6.00 Build 0)  -->
<svg version="1.1" id="Capa_1" xmlns="http://www.w3.org/2000/svg" xmlns:xlink="http://www.w3.org/1999/xlink" x="0px" y="0px"
	 viewBox="0 0 177 46" style="enable-background:new 0 0 177 46;" xml:space="preserve">
<style type="text/css">
	.st0{fill:#5C0F8B;}
</style>
<g id="agencia_x5F_digital">
</g>
<g id="flecha">
</g>
<g id="a">
</g>
<g id="t">
</g>
<g id="c">
</g>
<g id="e">
</g>
<g id="n">
</g>
<g id="c-o">
	<g>
		<g>
			<g>
				<path d="M55.4,45.4l2.3-5h0.4l2.3,5H60l-2.2-4.8h0.1l-2.2,4.8H55.4z M56.3,44l0.1-0.3h3l0.1,0.3H56.3z"/>
				<path d="M63.7,45.4c-0.4,0-0.7,0-1.1-0.1S62,45,61.8,44.7c-0.3-0.3-0.4-0.6-0.6-0.8c-0.1-0.3-0.1-0.7-0.1-1s0-0.7,0.1-1
					s0.3-0.6,0.6-0.8c0.3-0.3,0.6-0.4,0.8-0.6c0.3-0.1,0.7-0.1,1.1-0.1c0.4,0,0.7,0,1,0.1s0.6,0.3,0.8,0.6l-0.3,0.3
					c-0.3-0.3-0.4-0.4-0.7-0.4c-0.3-0.1-0.6-0.1-0.8-0.1c-0.3,0-0.7,0-1,0.1s-0.6,0.3-0.7,0.4s-0.4,0.4-0.4,0.7
					c-0.1,0.3-0.1,0.6-0.1,0.8s0,0.6,0.1,0.8c0.1,0.3,0.3,0.6,0.4,0.7s0.4,0.4,0.7,0.4s0.6,0.1,1,0.1c0.3,0,0.6,0,0.8-0.1
					c0.3-0.1,0.6-0.3,0.7-0.4l0.3,0.3c-0.3,0.3-0.6,0.4-0.8,0.6C64.4,45.4,64,45.4,63.7,45.4z M65.1,44.9v-1.8h0.4V45L65.1,44.9z"/>
				<path d="M67.5,45.1h3v0.3h-3.4v-5h3.4v0.3h-3V45.1z M67.5,42.8h2.8v0.3h-2.8V42.8z"/>
				<path d="M72.1,45.4v-5h0.3l3.6,4.5h-0.1v-4.5h0.4v5H76l-3.6-4.5h0.1v4.5H72.1z"/>
				<path d="M80.2,45.4c-0.4,0-0.7,0-1.1-0.1s-0.6-0.3-0.8-0.6s-0.4-0.6-0.6-0.8c-0.1-0.3-0.1-0.7-0.1-1s0-0.7,0.1-1
					s0.3-0.6,0.6-0.8c0.3-0.3,0.6-0.4,0.8-0.6c0.4-0.1,0.7-0.1,1.1-0.1s0.7,0,1,0.1s0.6,0.3,0.8,0.6l-0.3,0.3
					C81.4,41.2,81.3,41,81,41c-0.3-0.1-0.6-0.1-0.8-0.1s-0.6,0-0.8,0.1c-0.3,0.1-0.6,0.3-0.7,0.4s-0.4,0.4-0.4,0.7
					c-0.1,0.3-0.1,0.6-0.1,0.8s0,0.6,0.1,0.8c0.1,0.3,0.3,0.6,0.4,0.7s0.4,0.4,0.7,0.4s0.6,0.1,0.8,0.1c0.3,0,0.6,0,0.8-0.1
					s0.6-0.3,0.7-0.4l0.3,0.3c-0.3,0.3-0.6,0.4-0.8,0.6C80.9,45.4,80.5,45.4,80.2,45.4z"/>
				<path d="M83.4,45.4v-5h0.4v5H83.4z"/>
				<path d="M84.7,45.4l2.3-5h0.4l2.3,5h-0.4l-2.2-4.8h0.1L85,45.4H84.7z M85.6,44l0.1-0.3h3l0.1,0.3H85.6z"/>
				<path d="M92.7,45.4v-5h1.9c0.6,0,1,0.1,1.4,0.3c0.4,0.1,0.7,0.6,1,0.8c0.3,0.4,0.3,0.8,0.3,1.2s-0.1,1-0.3,1.2
					c-0.3,0.4-0.6,0.7-1,0.8C95.6,45,95.2,45,94.6,45h-1.9V45.4z M93.1,45.1h1.7c0.4,0,0.8-0.1,1.2-0.3c0.4-0.1,0.6-0.4,0.8-0.8
					c0.3-0.4,0.3-0.7,0.3-1.1c0-0.4-0.1-0.8-0.4-1.1s-0.4-0.6-0.8-0.8s-0.8-0.3-1.2-0.3H93L93.1,45.1C93,45.1,93.1,45.1,93.1,45.1z"
					/>
				<path d="M98.8,45.4v-5h0.4v5H98.8z"/>
				<path d="M103.2,45.4c-0.4,0-0.7,0-1.1-0.1s-0.6-0.3-0.8-0.6c-0.1-0.1-0.4-0.4-0.4-0.8c-0.1-0.3-0.1-0.7-0.1-1s0-0.7,0.1-1
					s0.3-0.6,0.6-0.8c0.3-0.3,0.6-0.4,0.8-0.6c0.3-0.1,0.7-0.1,1.1-0.1s0.7,0,1,0.1s0.6,0.3,0.8,0.6l-0.3,0.3
					c-0.3-0.3-0.4-0.4-0.7-0.4c-0.3-0.1-0.6-0.1-0.8-0.1s-0.7,0-1,0.1s-0.6,0.3-0.7,0.4s-0.4,0.4-0.4,0.7c-0.1,0.3-0.1,0.6-0.1,0.8
					s0,0.6,0.1,0.8c0.1,0.3,0.3,0.6,0.4,0.7c0.1,0.1,0.4,0.4,0.7,0.4s0.6,0.1,1,0.1c0.3,0,0.6,0,0.8-0.1s0.6-0.3,0.7-0.4l0.3,0.3
					c-0.3,0.3-0.6,0.4-0.8,0.6C103.9,45.4,103.6,45.4,103.2,45.4z M104.7,44.9v-1.8h0.3V45L104.7,44.9z"/>
				<path d="M106.7,45.4v-5h0.4v5H106.7z"/>
				<path d="M109.9,45.4v-4.7h-1.8v-0.3h4v0.3h-1.8v4.7C110.3,45.4,109.9,45.4,109.9,45.4z"/>
				<path d="M112.2,45.4l2.3-5h0.4l2.3,5h-0.4l-2.2-4.8h0.1l-2.2,4.8H112.2z M113.2,44l0.1-0.3h3l0.1,0.3H113.2z"/>
				<path d="M118.3,45.4v-5h0.4v4.7h2.9v0.3C121.6,45.4,118.3,45.4,118.3,45.4z"/>
			</g>
		</g>
		<g>
			<g>
				<path class="st0" d="M175.2,6.6h-9.9c-0.7,0-1.2-0.6-1.2-1.2s0.6-1.2,1.2-1.2h9.9c0.7,0,1.2,0.6,1.2,1.2S175.8,6.6,175.2,6.6z"
					/>
			</g>
			<g>
				<path class="st0" d="M175.2,16.5c-0.7,0-1.2-0.6-1.2-1.2V5.5c0-0.7,0.6-1.2,1.2-1.2s1.2,0.6,1.2,1.2v9.9
					C176.3,16.1,175.8,16.5,175.2,16.5z"/>
			</g>
		</g>
		<path d="M164.6,9.1h6.9v23.8h-6.9v-2.6c-0.7,1-1.7,1.8-3,2.3c-1.4,0.6-2.6,0.8-3.7,0.8c-3.2,0-5.9-1.1-8.3-3.4
			c-2.3-2.2-3.6-5.2-3.6-8.8s1.2-6.5,3.6-8.8c2.3-2.2,5.2-3.4,8.3-3.4h6.7V9.1z M155,17.2c-1.2,1.1-1.8,2.3-1.8,4s0.6,2.9,1.8,4
			s2.5,1.5,4.1,1.5c1.5,0,2.8-0.6,4-1.5c1.1-1,1.7-2.3,1.7-4s-0.6-3-1.7-4c-1.1-1-2.5-1.5-4-1.5C157.5,15.7,156.1,16.3,155,17.2z"/>
		<path d="M138.4,9.5h5V15h-5v17.9h-6.9V15l0,0V9.5l0,0V0.6h6.9V9.5z"/>
		<path d="M109.6,30c-2.5-2.3-3.7-5.2-3.7-8.8s1.2-6.5,3.7-8.7s5.5-3.4,8.9-3.4c2.1,0,4,0.4,5.8,1.2s3.3,2.1,4.4,3.7l-5.6,4
			c-1-1.5-2.5-2.3-4.5-2.3c-1.5,0-2.9,0.6-4,1.5c-1.1,1-1.8,2.3-1.8,4s0.6,3,1.8,4c1.1,1.1,2.5,1.5,4,1.5c2.1,0,3.4-0.8,4.5-2.3
			l5.6,4c-1.1,1.5-2.5,2.8-4.3,3.7c-1.8,0.8-3.7,1.4-5.8,1.4C115.1,33.5,112.1,32.2,109.6,30z"/>
		<path d="M97.3,22.9l5.9,1.4c-0.8,3.7-3.6,6.5-8.3,8.3c-3.2,1.2-6.3,1.2-9.4,0c-3-1.2-5.2-3.6-6.5-6.9c-1.4-3.3-1.2-6.5,0.1-9.5
			c1.4-2.9,3.7-5.1,6.9-6.3c3.2-1.2,6.2-1.2,9.2,0.1c2.9,1.2,5.1,3.6,6.5,7c0.3,0.6,0.4,1.2,0.7,2.1l-16,6.2
			c0.6,1.1,1.5,1.8,2.9,1.9s2.6,0,3.9-0.4C95.3,25.9,96.7,24.7,97.3,22.9z M85,21.2l9.4-3.7c-0.7-1.1-1.5-1.9-2.8-2.2
			c-1.1-0.3-2.3-0.3-3.3,0.1c-1.1,0.4-1.9,1.1-2.6,2.1C85,18.6,84.7,19.8,85,21.2z"/>
		<path d="M60.1,20.5v12.4h-7V9.5h7V13c0.7-1.1,1.5-2.1,2.9-2.9C64.2,9.4,65.6,9,67,9c2.8,0,4.8,0.8,6.3,2.5s2.2,4.1,2.2,7.4v13.9
			h-7V20.2c0-1.5-0.4-2.6-1.1-3.4s-1.7-1.2-2.9-1.2C61.5,15.8,60.1,17.4,60.1,20.5z"/>
		<path class="st0" d="M46.6,12.1C41.8,7.3,34,7.2,29,11.9L27.9,13l-2.5,2.5L18,22.9l0,0l-1.5,1.5c-1.8,1.8-4.8,1.8-6.6,0
			c-1.1-1.1-1.7-2.6-1.2-4.3C8.8,19.6,9,19,9.2,18.6c1.1-1.8,3.3-2.5,5.1-2.1l5-6.5C14.6,7.5,8.5,8,4.4,12c-5.1,5-5.2,13.1-0.1,18.2
			c2.5,2.5,5.6,3.7,8.9,3.7s6.5-1.2,8.9-3.7l0.7-0.7l8.3-8.3l2.5-2.5l0.8-0.8c1.8-1.8,4.8-1.8,6.6,0c1.9,1.9,1.8,5-0.1,6.7
			c-1.9,1.8-4.8,1.7-6.6-0.3l-1.5-1.5l-5.6,5.6l1.5,1.5c2.5,2.5,5.6,3.7,8.9,3.7s6.5-1.2,8.9-3.7l0,0C51.6,25.2,51.6,17.1,46.6,12.1
			z"/>
	</g>
</g>
</svg>
